<?xml version="1.0" encoding="UTF-8" standalone="no"?>
<svg id="svg2" xmlns:rdf="http://www.w3.org/1999/02/22-rdf-syntax-ns#" xmlns="http://www.w3.org/2000/svg" height="720pt" width="1200pt" version="1.1" xmlns:cc="http://creativecommons.org/ns#" xmlns:xlink="http://www.w3.org/1999/xlink" viewBox="0 0 1200 720" xmlns:dc="http://purl.org/dc/elements/1.1/">
<defs id="defs14">
<pattern id="pattern4895" xlink:href="#pattern4890" patternTransform="matrix(0.8 0.8 -0.8 0.8 -2.1029 550.29)"/>
<pattern id="pattern4890" width="150" patternUnits="userSpaceOnUse" patternTransform="matrix(.8 0 0 .8 0 600)" height="150">
<path id="path4" d="m0 0v115.02c7.785-29.535 13.983-59.603 24.612-88.308 2.752-6.978 5.66-13.992 9.974-20.173 1.414-2.4237 5.164-5.789 6.547-6.539zm48.75 0c1.8288 0.71485 3.4428 1.8531 4.8764 3.2639 0.2 0.2025 0.398 0.4081 0.599 0.6136 4.0065 4.1445 6.9735 9.1574 9.798 14.149 5.748 10.554 10.53 21.59 15.739 32.411 4.0095 8.1375 7.9575 16.398 13.481 23.646 0.189 0.23849 0.38245 0.47385 0.57445 0.71085 0.453 0.432 0.8445 0.9226 1.1775 1.4536 0.0615 0.0135 0.18295 0.0375 0.24445 0.0495 0.1245 0.1635 0.24595 0.32705 0.37195 0.49055 0.2085 0.189 0.41264 0.3824 0.61664 0.5789 0.201 0.1995 0.3975 0.40345 0.5925 0.61196 1.545 1.485 3.3615 2.7495 5.3955 3.4605 0.066-0.0025 0.13491-0.005 0.20391-0.005 1.1385 0.4815 2.4434 0.474 3.6539 0.3 3.7755-0.6045 6.663-3.6119 8.895-6.5264-4.4505 1.0785-8.5364-1.8421-11.301-5.0266-4.433-5.229-7.379-11.497-10.228-17.676-7.27-17.056-12.672-34.815-18.142-52.506zm45 0 1.8614 1.6411c0.2085 0.189 0.41255 0.38086 0.61805 0.57586 0.1995 0.1995 0.39609 0.40496 0.59109 0.61195 1.545 1.485 3.3615 2.7496 5.3955 3.4606 1.28 0.4605 2.68 0.4573 3.85 0.2955 3.82-0.6015 6.39-3.678 8.68-6.585zm56.25 0c-5.2065 21.282-10.264 43.144-16.35 64.2-2.8995 9.879-6.015 19.71-9.8956 29.253-2.739 6.2265-5.484 12.597-9.903 17.848-2.184 2.5215-4.9918 4.9787-8.4853 5.1872-3.04 0.25-5.866-1.4-8.05-3.36-6.51-6.03-10.463-14.163-14.553-21.897-5.2785-10.522-9.9704-21.332-15.241-31.859-3.777-7.2945-7.575-14.762-13.257-20.793-2.637-2.7375-6.2177-5.2198-10.227-4.6378-3.5805 0.6765-6.459 3.3388-8.5875 6.1603-4.521 5.8935-7.4518 12.791-10.218 19.631-10.329 27.435-16.632 56.142-23.801 84.504l-1.436 5.76h41.25c1.7505-0.76032 4.9214-1.08 7.5 0h26.55c-4.45-13.18-8.452-26.58-13.314-39.64-3.228-8.56-6.582-17.13-11.294-25.002-2.406-3.9855-5.331-7.77-9.2895-10.32 1.4805-0.606 3.0795-0.993 4.6875-0.8175 0.70945 0.06 1.0695 0.103 1.7325 0.3075 2.2245 0.7125 4.1084 2.172 5.8034 3.735 0.1995 0.204 0.39759 0.4095 0.59859 0.615 4.6545 4.8615 7.9799 10.801 11.161 16.684 5.7825 10.97 10.63 22.397 16.162 33.491 3.3705 6.9705 7.086 13.821 11.648 20.088l0.554 0.86h21c0.75-0.75 1.1685-1.1985 1.65-1.8 6.42-9.957 10.087-21.354 13.846-32.505 7.82-24.514 13.5-49.52 19.75-74.45z"/>
</pattern>
</defs>
<rect id="rect4870" height="720" width="1200" y="0" x="0" fill="url(#pattern4895)"/>
</svg>
