<?xml version="1.0" encoding="UTF-8" standalone="no"?>
<!-- Created with Inkscape (http://www.inkscape.org/) -->

<svg
   xmlns:dc="http://purl.org/dc/elements/1.1/"
   xmlns:cc="http://creativecommons.org/ns#"
   xmlns:rdf="http://www.w3.org/1999/02/22-rdf-syntax-ns#"
   xmlns:svg="http://www.w3.org/2000/svg"
   xmlns="http://www.w3.org/2000/svg"
   xmlns:sodipodi="http://sodipodi.sourceforge.net/DTD/sodipodi-0.dtd"
   xmlns:inkscape="http://www.inkscape.org/namespaces/inkscape"
   id="svg2"
   version="1.1"
   inkscape:version="0.91 r13725"
   width="600"
   height="600"
   viewBox="0 0 600 600"
   sodipodi:docname="seamless pattern 01.svg">
  <metadata
     id="metadata8">
    <rdf:RDF>
      <cc:Work
         rdf:about="">
        <dc:format>image/svg+xml</dc:format>
        <dc:type
           rdf:resource="http://purl.org/dc/dcmitype/StillImage" />
        <dc:title></dc:title>
      </cc:Work>
    </rdf:RDF>
  </metadata>
  <defs
     id="defs6" />
  <sodipodi:namedview
     pagecolor="#ffffff"
     bordercolor="#666666"
     borderopacity="1"
     objecttolerance="10"
     gridtolerance="10"
     guidetolerance="10"
     inkscape:pageopacity="0"
     inkscape:pageshadow="2"
     inkscape:window-width="1178"
     inkscape:window-height="830"
     id="namedview4"
     showgrid="false"
     inkscape:zoom="0.63355687"
     inkscape:cx="327.62183"
     inkscape:cy="387.71192"
     inkscape:window-x="615"
     inkscape:window-y="75"
     inkscape:window-maximized="0"
     inkscape:current-layer="svg2" />
  <g
     id="g83686"
     style="fill:#000000;fill-opacity:1">
    <path
       style="fill:#000000;fill-opacity:1"
       d="m 0,298.9225 c 0,-1.04582 0.02939304,-1.05088 1,-0.1725 0.55,0.49774 1,0.98261 1,1.07749 C 2,299.92237 1.55,300 1,300 0.30935987,300 0,299.66667 0,298.9225 Z M 58.25288,286.875 c 39.822025,-40.21833 55.06674,-55.375 55.69669,-55.375 0.9747,0 12.05225,11.0129 12.04262,11.97234 -0.004,0.42771 -12.43555,13.34673 -27.625,28.70894 -24.460705,24.73889 -27.769475,27.91055 -28.949605,27.75 -1.20445,-0.16387 1.302315,-2.84632 26.10199,-27.93128 15.088915,-15.2625 27.444755,-28.09247 27.457415,-28.51104 0.0301,-0.99656 -8.01104,-8.98896 -9.04381,-8.98896 -0.43777,0 -15.3642,14.7375 -33.169845,32.75 C 51.629535,296.72226 48.232689,300 46.823322,300 45.358784,300 46.100057,299.14877 58.25288,286.875 Z M 97.75,293 c 3.84263,-3.85 7.22535,-7 7.51716,-7 0.29179,0 3.55731,3.08504 7.25669,6.85565 5.99479,6.11021 6.59592,6.87617 5.52841,7.04431 -0.96806,0.15247 -2.26399,-0.87457 -6.75783,-5.35565 C 108.23639,291.49494 105.5319,289 105.28446,289 c -0.24743,0 -2.98274,2.475 -6.078445,5.5 -4.465575,4.36358 -5.91929,5.5 -7.03559,5.5 -1.27701,0 -0.76142,-0.64684 5.579575,-7 z m 109.76923,5.625 C 211.41228,294.14009 252.87862,253 253.50605,253 c 1.10669,0 12.12866,11.21137 11.91859,12.1234 -0.096,0.41699 -7.73455,8.43482 -16.97442,17.81739 C 234.4812,297.12552 231.41928,300 230.27865,300 l -1.37177,0 2.0137,-2.375 c 1.10753,-1.30625 8.66598,-9.01107 16.79655,-17.12182 C 255.84771,272.39242 262.5,265.41246 262.5,264.99214 262.5,263.97369 254.45111,256 253.42306,256 c -0.44333,0 -10.59789,9.9 -22.5657,22 -18.27408,18.47593 -21.98166,22 -23.14566,22 l -1.38602,0 1.19355,-1.375 z m 44.75501,0.25 c 0.51107,-0.61875 5.88782,-6.13125 11.94832,-12.25 C 272.6344,278.13232 275.5324,275.5 276.47039,275.5 278.17215,275.5 300,297.17078 300,298.86029 300,299.48713 299.83769,300 299.63931,300 c -0.19838,0 -5.32858,-4.95 -11.40044,-11 -6.07186,-6.05 -11.3658,-11.0066 -11.76431,-11.01466 -0.39851,-0.008 -5.5624,4.94194 -11.47531,11 C 255.86806,298.34068 254.0298,300 252.79675,300 c -1.4475,0 -1.44903,-0.003 -0.52251,-1.125 z M 148.16685,242.73183 C 122.23394,216.5938 103.43789,198.02324 103,198.10683 102.5875,198.18557 89.65494,210.9625 74.260975,226.5 58.86701,242.0375 45.92951,254.81367 45.510975,254.89149 45.06591,254.97424 35.461256,245.72757 22.375,232.61783 3.0021795,213.21024 0,210.00487 0,208.72842 0,207.40739 2.3257421,209.57948 22.37706,229.62708 34.684444,241.93219 45.010894,252 45.324727,252 45.63856,252 58.60777,239.175 74.1452,223.5 89.682625,207.825 102.73204,195 103.1439,195 c 0.41186,0 20.71777,20.1375 45.12423,44.75 24.40647,24.6125 44.6199,44.75 44.91874,44.75 0.70932,0 9.31313,-8.56444 9.31313,-9.27052 0,-0.29775 -20.1375,-20.40844 -44.75,-44.69042 C 133.1375,206.25708 113,186.01763 113,185.5625 113,184.6468 124.92967,172.5 125.829,172.5 c 0.3105,0 13.43175,13.275 29.15832,29.5 15.72658,16.225 28.76655,29.5 28.97771,29.5 0.21116,0 10.97151,-10.4625 23.9119,-23.25 12.94038,-12.7875 23.67604,-23.25 23.85702,-23.25 0.18098,0 15.63738,15.2477 34.34756,33.88378 29.46033,29.34366 33.99102,34.05008 33.81345,35.125 -0.1811,1.09624 -3.18006,-1.70805 -25.67544,-24.00878 -14.00871,-13.8875 -29.34934,-29.07042 -34.09028,-33.73982 l -8.6199,-8.48982 -19.62967,19.4916 c -27.32033,27.12815 -27.63877,27.42925 -28.47082,26.91973 -0.38774,-0.23743 -13.39472,-13.53794 -28.90441,-29.55669 -15.50969,-16.01875 -28.44103,-29.125 -28.73632,-29.125 -0.53464,0 -10.26812,9.51963 -10.26812,10.04252 0,0.15105 20.25,20.25318 45,44.67141 24.75,24.41822 45,44.65663 45,44.97424 0,0.75178 -11.58712,12.31183 -12.34066,12.31183 -0.3166,0 -20.56322,-20.14567 -44.99249,-44.76817 z M 10.878066,266.5915 C 1.9560864,257.64457 0,255.43421 0,254.29941 c 0,-1.22909 1.2402594,-0.17845 11.106563,9.4085 6.10861,5.93565 11.344303,10.79209 11.634875,10.79209 0.811055,0 9.757448,-9.16862 9.766796,-10.00939 C 32.512763,264.08327 25.175435,256.55 16.20306,247.75 1.7871747,233.61107 -0.08939176,231.5936 0.06982545,230.4054 c 0.16457927,-1.2282 1.70778245,0.1567 17.82885055,16 9.706773,9.53953 17.638022,17.69362 17.625,18.12022 C 35.493902,265.50099 23.410902,277.5 22.458478,277.5 c -0.386291,0 -5.597476,-4.90882 -11.580412,-10.9085 z M 271.375,203.45473 C 255.76875,188.03344 243,175.06286 243,174.63123 243,173.56445 253.98035,162.5 255.03902,162.5 c 0.46438,0 10.77058,10.02664 22.90266,22.28143 C 295.06313,202.07605 300,207.33953 300,208.29902 c 0,1.04981 -0.14007,1.1612 -0.92917,0.73888 -0.51104,-0.2735 -10.44437,-10.18142 -22.07406,-22.01759 C 265.15886,174.97222 255.46814,165.5 254.98005,165.5 c -0.83012,0 -8.95433,8.40591 -9.00354,9.31573 -0.0129,0.23885 12.15738,12.47258 27.0451,27.18607 24.16706,23.88423 27.05036,26.89864 26.89849,28.12171 -0.15507,1.24883 -2.67832,-1.10857 -28.5451,-26.66878 z M 29.965843,212.19556 C 26.684629,208.95476 24,205.99128 24,205.61005 24,205.22881 43.85625,184.90872 68.125,160.45429 92.39375,135.99987 112.32839,115.62678 112.4242,115.18075 112.63118,114.21721 104.652,106 103.50939,106 c -0.41947,0 -13.58694,12.83158 -29.261035,28.51461 -22.005855,22.0184 -28.741551,28.4828 -29.565846,28.375 -0.629646,-0.0823 -10.012137,-8.99175 -22.875,-21.72158 C 3.800362,123.34713 0,119.3513 0,118.23893 c 0,-1.25909 0.28595193,-1.08429 4.375,2.67439 2.40625,2.21184 12.361311,12.02368 22.122359,21.8041 C 36.258406,152.49784 44.47164,160.5 44.748989,160.5 45.026339,160.5 58.189295,147.5625 74,131.75 89.810705,115.9375 103.08865,103 103.50652,103 c 0.99905,0 11.99348,11.03751 11.99348,12.04046 0,0.42615 -20.06114,20.97254 -44.58031,45.65866 l -44.580305,44.88385 4.870577,4.83351 4.870577,4.83352 44.631976,-44.875 C 113.98798,136.91835 125.63599,125.5 126.49011,125.5 c 0.84163,0 7.22537,6.03642 24.05898,22.75 12.60235,12.5125 23.12165,22.75 23.37624,22.75 0.25457,0 20.43132,-20.1375 44.83722,-44.75 C 243.16845,101.6375 263.47816,81.5 263.89524,81.5 264.93338,81.5 276,92.49118 276,93.52225 c 0,0.45516 -20.06187,21.01679 -44.58193,45.69251 l -44.58195,44.86495 4.87067,4.83515 4.87066,4.83514 44.64767,-44.875 c 24.55622,-24.68125 44.95754,-44.86863 45.33627,-44.86085 0.37874,0.008 3.55736,2.79501 7.06361,6.19386 5.16305,5.0049 6.375,6.4446 6.375,7.57302 l 0,1.39328 -1.375,-1.1965 c -0.75625,-0.65808 -3.6512,-3.41958 -6.43323,-6.13668 -2.78202,-2.7171 -5.38126,-4.86164 -5.77609,-4.76565 -0.39483,0.096 -20.4867,20.08702 -44.64861,44.42452 -24.16191,24.3375 -44.25811,44.44486 -44.65821,44.68303 -0.54154,0.32236 -2.2458,-1.08134 -6.66816,-5.49218 -3.26739,-3.25887 -5.9407,-6.22854 -5.9407,-6.59927 0,-0.37073 19.85625,-20.67774 44.125,-45.1267 24.26875,-24.44895 44.20339,-44.82219 44.2992,-45.27386 0.20713,-0.976475 -7.76552,-9.19102 -8.92038,-9.19102 -0.42254,0 -20.75223,20.1375 -45.17708,44.75 -24.42486,24.6125 -44.66365,44.75 -44.97508,44.75 -0.31143,0 -10.95384,-10.37163 -23.64979,-23.04806 -13.49499,-13.47424 -23.38615,-22.97616 -23.81205,-22.875 -0.40067,0.0952 -20.60427,20.19806 -44.89688,44.67306 -24.292605,24.475 -44.481773,44.68853 -44.864815,44.91896 -0.50193,0.30195 -2.362641,-1.22672 -6.662282,-5.4734 z M 21.361708,116.10027 C 3.7690442,98.47629 0,94.462295 0,93.35027 0,92.60762 0.06237089,92 0.13860196,92 0.21483305,92 9.830108,101.5625 21.505879,113.25 33.181651,124.9375 42.958579,134.5 43.232386,134.5 43.912948,134.5 52.5,125.90636 52.5,125.22528 52.5,124.92521 40.6875,113.03165 26.25,98.79514 5.7104515,78.541525 0,72.642965 0,71.68044 0,70.76901 0.18133846,70.5539 0.699932,70.850155 2.0334908,71.611965 55.5,124.61221 55.5,125.17233 55.5,125.88182 43.94986,137.5 43.244524,137.5 c -0.28661,0 -10.133877,-9.62988 -21.882816,-21.39973 z M 126.91088,82.75 C 102.16997,58.1375 81.668245,38 81.351505,38 81.03477,38 70.61728,48.149263 58.20153,60.55392 40.436067,78.30351 35.427481,83.04413 34.688721,82.808755 34.172424,82.64426 26.136039,74.892305 16.830087,65.58219 2.580567,51.326295 -0.05895763,48.464948 0.105753,47.452355 0.27626226,46.404114 2.4801238,48.412983 17.299677,63.125 26.648768,72.40625 34.625656,80 35.026095,80 35.426534,80 45.877291,69.875 58.25,57.5 70.62271,45.125 81.12776,35 81.594565,35 c 0.4668,0 1.14274,0.395491 1.502085,0.87887 1.6342,2.198282 88.92559,88.62113 89.51176,88.62113 1.05123,0 10.01317,-9.26575 9.81596,-10.14874 C 182.32847,113.92184 162.16875,93.73871 137.625,69.499875 113.08125,45.261043 93,25.073136 93,24.637861 93,23.586546 103.96633,12.5 105.00625,12.5 c 0.44636,0 20.78533,20.1375 45.19772,44.75 24.41239,24.6125 44.67983,44.75 45.03876,44.75 0.35893,0 13.36504,-12.825 28.90247,-28.5 15.53742,-15.675 28.56027,-28.5 28.93966,-28.5 0.37939,0 11.0905,10.416565 23.80247,23.147915 C 296.1719,87.4619 300,91.52389 300,92.67276 c 0,1.04688 -0.1713,1.281065 -0.71466,0.97699 C 298.89229,93.42978 288.51086,83.05707 276.21552,70.59928 262.15725,56.35527 253.56152,48.004652 253.05517,48.099375 252.61233,48.182218 239.65494,60.9625 224.26097,76.5 c -15.39396,15.5375 -28.35353,28.31742 -28.79904,28.39982 -0.51437,0.0951 -17.07302,-16.206785 -45.36843,-44.66504 -29.39212,-29.561273 -44.84092,-44.758684 -45.3884,-44.649819 -0.45648,0.09077 -2.71927,2.220126 -5.02841,4.731899 l -4.19844,4.56686 45.01087,44.41382 C 165.2451,93.72514 185.5,114.06908 185.5,114.50629 c 0,0.93284 -12.04111,12.99371 -12.97241,12.99371 -0.34828,0 -20.8758,-20.1375 -45.61671,-44.75 z M 281.30915,54.449505 C 271.23912,44.521729 263,36.024603 263,35.567 263,34.747319 274.87818,22.5 275.67315,22.5 c 0.63083,0 23.12796,21.944112 23.81692,23.231451 0.33471,0.625411 0.51885,1.560435 0.4092,2.07783 C 299.74591,48.532869 296.98635,46.066796 287.94348,37.125 281.47746,30.73125 275.97201,25.5 275.70915,25.5 c -0.26285,0 -2.72369,2.267063 -5.46853,5.037918 L 265.25,35.575836 282.625,52.681255 C 296.98647,66.819905 300,70.02197 300,71.143335 300,71.8895 299.91412,72.5 299.80915,72.5 c -0.10496,0 -8.42996,-8.122725 -18.5,-18.050495 z M 179.96584,62.19556 C 176.68463,58.95476 174,55.95296 174,55.524895 c 0,-0.42807 12.33977,-13.116552 27.42172,-28.196632 23.28466,-23.2817664 27.60327,-27.38832895 28.625,-27.21948452 1.04349,0.17243822 -2.44737,3.86427322 -26.28754,27.80100752 l -27.49082,27.602164 4.86671,4.866705 4.86671,4.86671 32.6706,-32.667747 C 246.29473,4.9576813 251.52895,-0.06163758 252.54649,0.09425177 253.58351,0.25312477 249.15328,4.9109584 220.52173,33.764315 202.24617,52.18144 186.98705,67.43853 186.61257,67.66896 c -0.48539,0.29867 -2.39379,-1.27285 -6.64672,-5.4734 z M 40.367184,40.61749 C 37.140233,37.38211 34.5,34.3996 34.5,33.989691 34.5,33.579782 41.982491,25.764412 51.12776,16.622201 65.510595,2.244172 67.95633,0 69.242895,0 70.58909,0 69.11883,1.6140166 53.753675,17.003677 l -16.9766,17.003678 4.726587,4.746322 C 44.103285,41.364155 46.450268,43.5 46.719178,43.5 46.988089,43.5 53.40503,37.370311 60.979055,29.878469 92.4791,-1.2797981 91.21768,-0.09644189 92.73875,0.08418749 94.016365,0.23590643 92.135625,2.2155571 70.611595,23.375 57.673695,36.09375 46.89604,46.5 46.661253,46.5 c -0.234787,0 -3.067118,-2.647129 -6.294069,-5.88251 z M 162.25,45.008828 C 161.7,44.773546 151.23845,34.550308 139.0021,22.290521 119.06213,2.3123392 116.90707,0 118.22765,0 c 1.27462,0 4.39548,2.9169671 23.12839,21.617345 L 163.011,43.234691 184.67762,21.572364 C 203.02729,3.2263318 206.52839,-0.05941973 207.54712,0.10954332 208.59277,0.28297135 205.81,3.2625081 186.2575,22.904524 173.88662,35.332036 163.64912,45.485738 163.5075,45.468307 163.36587,45.450876 162.8,45.24411 162.25,45.008828 Z M 11.649392,12.389105 C 5.2422265,6.0031115 0,0.6031117 0,0.38910434 0,0.17509695 0.5100872,0 1.1335271,0 1.91262,0 3.984142,1.7308412 7.758527,5.535458 c 3.02031,3.044502 7.925372,7.808654 10.900136,10.587003 l 5.408663,5.051545 10.5956,-10.587003 C 43.719922,1.5373558 45.475158,0 46.750357,0 48.114454,0 47.215395,1.0274613 36.25,12 29.654297,18.6 24.042032,24 23.778299,24 23.514566,24 18.056559,18.775097 11.649392,12.389105 Z"
       id="path83688"
       inkscape:connector-curvature="0" />
  </g>
  <g
     style="fill:#000000;fill-opacity:1"
     id="g83692"
     transform="translate(0,300)">
    <path
       inkscape:connector-curvature="0"
       id="path83694"
       d="m 0,298.9225 c 0,-1.04582 0.02939304,-1.05088 1,-0.1725 0.55,0.49774 1,0.98261 1,1.07749 C 2,299.92237 1.55,300 1,300 0.30935987,300 0,299.66667 0,298.9225 Z M 58.25288,286.875 c 39.822025,-40.21833 55.06674,-55.375 55.69669,-55.375 0.9747,0 12.05225,11.0129 12.04262,11.97234 -0.004,0.42771 -12.43555,13.34673 -27.625,28.70894 -24.460705,24.73889 -27.769475,27.91055 -28.949605,27.75 -1.20445,-0.16387 1.302315,-2.84632 26.10199,-27.93128 15.088915,-15.2625 27.444755,-28.09247 27.457415,-28.51104 0.0301,-0.99656 -8.01104,-8.98896 -9.04381,-8.98896 -0.43777,0 -15.3642,14.7375 -33.169845,32.75 C 51.629535,296.72226 48.232689,300 46.823322,300 45.358784,300 46.100057,299.14877 58.25288,286.875 Z M 97.75,293 c 3.84263,-3.85 7.22535,-7 7.51716,-7 0.29179,0 3.55731,3.08504 7.25669,6.85565 5.99479,6.11021 6.59592,6.87617 5.52841,7.04431 -0.96806,0.15247 -2.26399,-0.87457 -6.75783,-5.35565 C 108.23639,291.49494 105.5319,289 105.28446,289 c -0.24743,0 -2.98274,2.475 -6.078445,5.5 -4.465575,4.36358 -5.91929,5.5 -7.03559,5.5 -1.27701,0 -0.76142,-0.64684 5.579575,-7 z m 109.76923,5.625 C 211.41228,294.14009 252.87862,253 253.50605,253 c 1.10669,0 12.12866,11.21137 11.91859,12.1234 -0.096,0.41699 -7.73455,8.43482 -16.97442,17.81739 C 234.4812,297.12552 231.41928,300 230.27865,300 l -1.37177,0 2.0137,-2.375 c 1.10753,-1.30625 8.66598,-9.01107 16.79655,-17.12182 C 255.84771,272.39242 262.5,265.41246 262.5,264.99214 262.5,263.97369 254.45111,256 253.42306,256 c -0.44333,0 -10.59789,9.9 -22.5657,22 -18.27408,18.47593 -21.98166,22 -23.14566,22 l -1.38602,0 1.19355,-1.375 z m 44.75501,0.25 c 0.51107,-0.61875 5.88782,-6.13125 11.94832,-12.25 C 272.6344,278.13232 275.5324,275.5 276.47039,275.5 278.17215,275.5 300,297.17078 300,298.86029 300,299.48713 299.83769,300 299.63931,300 c -0.19838,0 -5.32858,-4.95 -11.40044,-11 -6.07186,-6.05 -11.3658,-11.0066 -11.76431,-11.01466 -0.39851,-0.008 -5.5624,4.94194 -11.47531,11 C 255.86806,298.34068 254.0298,300 252.79675,300 c -1.4475,0 -1.44903,-0.003 -0.52251,-1.125 z M 148.16685,242.73183 C 122.23394,216.5938 103.43789,198.02324 103,198.10683 102.5875,198.18557 89.65494,210.9625 74.260975,226.5 58.86701,242.0375 45.92951,254.81367 45.510975,254.89149 45.06591,254.97424 35.461256,245.72757 22.375,232.61783 3.0021795,213.21024 0,210.00487 0,208.72842 0,207.40739 2.3257421,209.57948 22.37706,229.62708 34.684444,241.93219 45.010894,252 45.324727,252 45.63856,252 58.60777,239.175 74.1452,223.5 89.682625,207.825 102.73204,195 103.1439,195 c 0.41186,0 20.71777,20.1375 45.12423,44.75 24.40647,24.6125 44.6199,44.75 44.91874,44.75 0.70932,0 9.31313,-8.56444 9.31313,-9.27052 0,-0.29775 -20.1375,-20.40844 -44.75,-44.69042 C 133.1375,206.25708 113,186.01763 113,185.5625 113,184.6468 124.92967,172.5 125.829,172.5 c 0.3105,0 13.43175,13.275 29.15832,29.5 15.72658,16.225 28.76655,29.5 28.97771,29.5 0.21116,0 10.97151,-10.4625 23.9119,-23.25 12.94038,-12.7875 23.67604,-23.25 23.85702,-23.25 0.18098,0 15.63738,15.2477 34.34756,33.88378 29.46033,29.34366 33.99102,34.05008 33.81345,35.125 -0.1811,1.09624 -3.18006,-1.70805 -25.67544,-24.00878 -14.00871,-13.8875 -29.34934,-29.07042 -34.09028,-33.73982 l -8.6199,-8.48982 -19.62967,19.4916 c -27.32033,27.12815 -27.63877,27.42925 -28.47082,26.91973 -0.38774,-0.23743 -13.39472,-13.53794 -28.90441,-29.55669 -15.50969,-16.01875 -28.44103,-29.125 -28.73632,-29.125 -0.53464,0 -10.26812,9.51963 -10.26812,10.04252 0,0.15105 20.25,20.25318 45,44.67141 24.75,24.41822 45,44.65663 45,44.97424 0,0.75178 -11.58712,12.31183 -12.34066,12.31183 -0.3166,0 -20.56322,-20.14567 -44.99249,-44.76817 z M 10.878066,266.5915 C 1.9560864,257.64457 0,255.43421 0,254.29941 c 0,-1.22909 1.2402594,-0.17845 11.106563,9.4085 6.10861,5.93565 11.344303,10.79209 11.634875,10.79209 0.811055,0 9.757448,-9.16862 9.766796,-10.00939 C 32.512763,264.08327 25.175435,256.55 16.20306,247.75 1.7871747,233.61107 -0.08939176,231.5936 0.06982545,230.4054 c 0.16457927,-1.2282 1.70778245,0.1567 17.82885055,16 9.706773,9.53953 17.638022,17.69362 17.625,18.12022 C 35.493902,265.50099 23.410902,277.5 22.458478,277.5 c -0.386291,0 -5.597476,-4.90882 -11.580412,-10.9085 z M 271.375,203.45473 C 255.76875,188.03344 243,175.06286 243,174.63123 243,173.56445 253.98035,162.5 255.03902,162.5 c 0.46438,0 10.77058,10.02664 22.90266,22.28143 C 295.06313,202.07605 300,207.33953 300,208.29902 c 0,1.04981 -0.14007,1.1612 -0.92917,0.73888 -0.51104,-0.2735 -10.44437,-10.18142 -22.07406,-22.01759 C 265.15886,174.97222 255.46814,165.5 254.98005,165.5 c -0.83012,0 -8.95433,8.40591 -9.00354,9.31573 -0.0129,0.23885 12.15738,12.47258 27.0451,27.18607 24.16706,23.88423 27.05036,26.89864 26.89849,28.12171 -0.15507,1.24883 -2.67832,-1.10857 -28.5451,-26.66878 z M 29.965843,212.19556 C 26.684629,208.95476 24,205.99128 24,205.61005 24,205.22881 43.85625,184.90872 68.125,160.45429 92.39375,135.99987 112.32839,115.62678 112.4242,115.18075 112.63118,114.21721 104.652,106 103.50939,106 c -0.41947,0 -13.58694,12.83158 -29.261035,28.51461 -22.005855,22.0184 -28.741551,28.4828 -29.565846,28.375 -0.629646,-0.0823 -10.012137,-8.99175 -22.875,-21.72158 C 3.800362,123.34713 0,119.3513 0,118.23893 c 0,-1.25909 0.28595193,-1.08429 4.375,2.67439 2.40625,2.21184 12.361311,12.02368 22.122359,21.8041 C 36.258406,152.49784 44.47164,160.5 44.748989,160.5 45.026339,160.5 58.189295,147.5625 74,131.75 89.810705,115.9375 103.08865,103 103.50652,103 c 0.99905,0 11.99348,11.03751 11.99348,12.04046 0,0.42615 -20.06114,20.97254 -44.58031,45.65866 l -44.580305,44.88385 4.870577,4.83351 4.870577,4.83352 44.631976,-44.875 C 113.98798,136.91835 125.63599,125.5 126.49011,125.5 c 0.84163,0 7.22537,6.03642 24.05898,22.75 12.60235,12.5125 23.12165,22.75 23.37624,22.75 0.25457,0 20.43132,-20.1375 44.83722,-44.75 C 243.16845,101.6375 263.47816,81.5 263.89524,81.5 264.93338,81.5 276,92.49118 276,93.52225 c 0,0.45516 -20.06187,21.01679 -44.58193,45.69251 l -44.58195,44.86495 4.87067,4.83515 4.87066,4.83514 44.64767,-44.875 c 24.55622,-24.68125 44.95754,-44.86863 45.33627,-44.86085 0.37874,0.008 3.55736,2.79501 7.06361,6.19386 5.16305,5.0049 6.375,6.4446 6.375,7.57302 l 0,1.39328 -1.375,-1.1965 c -0.75625,-0.65808 -3.6512,-3.41958 -6.43323,-6.13668 -2.78202,-2.7171 -5.38126,-4.86164 -5.77609,-4.76565 -0.39483,0.096 -20.4867,20.08702 -44.64861,44.42452 -24.16191,24.3375 -44.25811,44.44486 -44.65821,44.68303 -0.54154,0.32236 -2.2458,-1.08134 -6.66816,-5.49218 -3.26739,-3.25887 -5.9407,-6.22854 -5.9407,-6.59927 0,-0.37073 19.85625,-20.67774 44.125,-45.1267 24.26875,-24.44895 44.20339,-44.82219 44.2992,-45.27386 0.20713,-0.976475 -7.76552,-9.19102 -8.92038,-9.19102 -0.42254,0 -20.75223,20.1375 -45.17708,44.75 -24.42486,24.6125 -44.66365,44.75 -44.97508,44.75 -0.31143,0 -10.95384,-10.37163 -23.64979,-23.04806 -13.49499,-13.47424 -23.38615,-22.97616 -23.81205,-22.875 -0.40067,0.0952 -20.60427,20.19806 -44.89688,44.67306 -24.292605,24.475 -44.481773,44.68853 -44.864815,44.91896 -0.50193,0.30195 -2.362641,-1.22672 -6.662282,-5.4734 z M 21.361708,116.10027 C 3.7690442,98.47629 0,94.462295 0,93.35027 0,92.60762 0.06237089,92 0.13860196,92 0.21483305,92 9.830108,101.5625 21.505879,113.25 33.181651,124.9375 42.958579,134.5 43.232386,134.5 43.912948,134.5 52.5,125.90636 52.5,125.22528 52.5,124.92521 40.6875,113.03165 26.25,98.79514 5.7104515,78.541525 0,72.642965 0,71.68044 0,70.76901 0.18133846,70.5539 0.699932,70.850155 2.0334908,71.611965 55.5,124.61221 55.5,125.17233 55.5,125.88182 43.94986,137.5 43.244524,137.5 c -0.28661,0 -10.133877,-9.62988 -21.882816,-21.39973 z M 126.91088,82.75 C 102.16997,58.1375 81.668245,38 81.351505,38 81.03477,38 70.61728,48.149263 58.20153,60.55392 40.436067,78.30351 35.427481,83.04413 34.688721,82.808755 34.172424,82.64426 26.136039,74.892305 16.830087,65.58219 2.580567,51.326295 -0.05895763,48.464948 0.105753,47.452355 0.27626226,46.404114 2.4801238,48.412983 17.299677,63.125 26.648768,72.40625 34.625656,80 35.026095,80 35.426534,80 45.877291,69.875 58.25,57.5 70.62271,45.125 81.12776,35 81.594565,35 c 0.4668,0 1.14274,0.395491 1.502085,0.87887 1.6342,2.198282 88.92559,88.62113 89.51176,88.62113 1.05123,0 10.01317,-9.26575 9.81596,-10.14874 C 182.32847,113.92184 162.16875,93.73871 137.625,69.499875 113.08125,45.261043 93,25.073136 93,24.637861 93,23.586546 103.96633,12.5 105.00625,12.5 c 0.44636,0 20.78533,20.1375 45.19772,44.75 24.41239,24.6125 44.67983,44.75 45.03876,44.75 0.35893,0 13.36504,-12.825 28.90247,-28.5 15.53742,-15.675 28.56027,-28.5 28.93966,-28.5 0.37939,0 11.0905,10.416565 23.80247,23.147915 C 296.1719,87.4619 300,91.52389 300,92.67276 c 0,1.04688 -0.1713,1.281065 -0.71466,0.97699 C 298.89229,93.42978 288.51086,83.05707 276.21552,70.59928 262.15725,56.35527 253.56152,48.004652 253.05517,48.099375 252.61233,48.182218 239.65494,60.9625 224.26097,76.5 c -15.39396,15.5375 -28.35353,28.31742 -28.79904,28.39982 -0.51437,0.0951 -17.07302,-16.206785 -45.36843,-44.66504 -29.39212,-29.561273 -44.84092,-44.758684 -45.3884,-44.649819 -0.45648,0.09077 -2.71927,2.220126 -5.02841,4.731899 l -4.19844,4.56686 45.01087,44.41382 C 165.2451,93.72514 185.5,114.06908 185.5,114.50629 c 0,0.93284 -12.04111,12.99371 -12.97241,12.99371 -0.34828,0 -20.8758,-20.1375 -45.61671,-44.75 z M 281.30915,54.449505 C 271.23912,44.521729 263,36.024603 263,35.567 263,34.747319 274.87818,22.5 275.67315,22.5 c 0.63083,0 23.12796,21.944112 23.81692,23.231451 0.33471,0.625411 0.51885,1.560435 0.4092,2.07783 C 299.74591,48.532869 296.98635,46.066796 287.94348,37.125 281.47746,30.73125 275.97201,25.5 275.70915,25.5 c -0.26285,0 -2.72369,2.267063 -5.46853,5.037918 L 265.25,35.575836 282.625,52.681255 C 296.98647,66.819905 300,70.02197 300,71.143335 300,71.8895 299.91412,72.5 299.80915,72.5 c -0.10496,0 -8.42996,-8.122725 -18.5,-18.050495 z M 179.96584,62.19556 C 176.68463,58.95476 174,55.95296 174,55.524895 c 0,-0.42807 12.33977,-13.116552 27.42172,-28.196632 23.28466,-23.2817664 27.60327,-27.38832895 28.625,-27.21948452 1.04349,0.17243822 -2.44737,3.86427322 -26.28754,27.80100752 l -27.49082,27.602164 4.86671,4.866705 4.86671,4.86671 32.6706,-32.667747 C 246.29473,4.9576813 251.52895,-0.06163758 252.54649,0.09425177 253.58351,0.25312477 249.15328,4.9109584 220.52173,33.764315 202.24617,52.18144 186.98705,67.43853 186.61257,67.66896 c -0.48539,0.29867 -2.39379,-1.27285 -6.64672,-5.4734 z M 40.367184,40.61749 C 37.140233,37.38211 34.5,34.3996 34.5,33.989691 34.5,33.579782 41.982491,25.764412 51.12776,16.622201 65.510595,2.244172 67.95633,0 69.242895,0 70.58909,0 69.11883,1.6140166 53.753675,17.003677 l -16.9766,17.003678 4.726587,4.746322 C 44.103285,41.364155 46.450268,43.5 46.719178,43.5 46.988089,43.5 53.40503,37.370311 60.979055,29.878469 92.4791,-1.2797981 91.21768,-0.09644189 92.73875,0.08418749 94.016365,0.23590643 92.135625,2.2155571 70.611595,23.375 57.673695,36.09375 46.89604,46.5 46.661253,46.5 c -0.234787,0 -3.067118,-2.647129 -6.294069,-5.88251 z M 162.25,45.008828 C 161.7,44.773546 151.23845,34.550308 139.0021,22.290521 119.06213,2.3123392 116.90707,0 118.22765,0 c 1.27462,0 4.39548,2.9169671 23.12839,21.617345 L 163.011,43.234691 184.67762,21.572364 C 203.02729,3.2263318 206.52839,-0.05941973 207.54712,0.10954332 208.59277,0.28297135 205.81,3.2625081 186.2575,22.904524 173.88662,35.332036 163.64912,45.485738 163.5075,45.468307 163.36587,45.450876 162.8,45.24411 162.25,45.008828 Z M 11.649392,12.389105 C 5.2422265,6.0031115 0,0.6031117 0,0.38910434 0,0.17509695 0.5100872,0 1.1335271,0 1.91262,0 3.984142,1.7308412 7.758527,5.535458 c 3.02031,3.044502 7.925372,7.808654 10.900136,10.587003 l 5.408663,5.051545 10.5956,-10.587003 C 43.719922,1.5373558 45.475158,0 46.750357,0 48.114454,0 47.215395,1.0274613 36.25,12 29.654297,18.6 24.042032,24 23.778299,24 23.514566,24 18.056559,18.775097 11.649392,12.389105 Z"
       style="fill:#000000;fill-opacity:1" />
  </g>
  <g
     style="fill:#000000;fill-opacity:1"
     id="g83696"
     transform="translate(300,0)">
    <path
       inkscape:connector-curvature="0"
       id="path83698"
       d="m 0,298.9225 c 0,-1.04582 0.02939304,-1.05088 1,-0.1725 0.55,0.49774 1,0.98261 1,1.07749 C 2,299.92237 1.55,300 1,300 0.30935987,300 0,299.66667 0,298.9225 Z M 58.25288,286.875 c 39.822025,-40.21833 55.06674,-55.375 55.69669,-55.375 0.9747,0 12.05225,11.0129 12.04262,11.97234 -0.004,0.42771 -12.43555,13.34673 -27.625,28.70894 -24.460705,24.73889 -27.769475,27.91055 -28.949605,27.75 -1.20445,-0.16387 1.302315,-2.84632 26.10199,-27.93128 15.088915,-15.2625 27.444755,-28.09247 27.457415,-28.51104 0.0301,-0.99656 -8.01104,-8.98896 -9.04381,-8.98896 -0.43777,0 -15.3642,14.7375 -33.169845,32.75 C 51.629535,296.72226 48.232689,300 46.823322,300 45.358784,300 46.100057,299.14877 58.25288,286.875 Z M 97.75,293 c 3.84263,-3.85 7.22535,-7 7.51716,-7 0.29179,0 3.55731,3.08504 7.25669,6.85565 5.99479,6.11021 6.59592,6.87617 5.52841,7.04431 -0.96806,0.15247 -2.26399,-0.87457 -6.75783,-5.35565 C 108.23639,291.49494 105.5319,289 105.28446,289 c -0.24743,0 -2.98274,2.475 -6.078445,5.5 -4.465575,4.36358 -5.91929,5.5 -7.03559,5.5 -1.27701,0 -0.76142,-0.64684 5.579575,-7 z m 109.76923,5.625 C 211.41228,294.14009 252.87862,253 253.50605,253 c 1.10669,0 12.12866,11.21137 11.91859,12.1234 -0.096,0.41699 -7.73455,8.43482 -16.97442,17.81739 C 234.4812,297.12552 231.41928,300 230.27865,300 l -1.37177,0 2.0137,-2.375 c 1.10753,-1.30625 8.66598,-9.01107 16.79655,-17.12182 C 255.84771,272.39242 262.5,265.41246 262.5,264.99214 262.5,263.97369 254.45111,256 253.42306,256 c -0.44333,0 -10.59789,9.9 -22.5657,22 -18.27408,18.47593 -21.98166,22 -23.14566,22 l -1.38602,0 1.19355,-1.375 z m 44.75501,0.25 c 0.51107,-0.61875 5.88782,-6.13125 11.94832,-12.25 C 272.6344,278.13232 275.5324,275.5 276.47039,275.5 278.17215,275.5 300,297.17078 300,298.86029 300,299.48713 299.83769,300 299.63931,300 c -0.19838,0 -5.32858,-4.95 -11.40044,-11 -6.07186,-6.05 -11.3658,-11.0066 -11.76431,-11.01466 -0.39851,-0.008 -5.5624,4.94194 -11.47531,11 C 255.86806,298.34068 254.0298,300 252.79675,300 c -1.4475,0 -1.44903,-0.003 -0.52251,-1.125 z M 148.16685,242.73183 C 122.23394,216.5938 103.43789,198.02324 103,198.10683 102.5875,198.18557 89.65494,210.9625 74.260975,226.5 58.86701,242.0375 45.92951,254.81367 45.510975,254.89149 45.06591,254.97424 35.461256,245.72757 22.375,232.61783 3.0021795,213.21024 0,210.00487 0,208.72842 0,207.40739 2.3257421,209.57948 22.37706,229.62708 34.684444,241.93219 45.010894,252 45.324727,252 45.63856,252 58.60777,239.175 74.1452,223.5 89.682625,207.825 102.73204,195 103.1439,195 c 0.41186,0 20.71777,20.1375 45.12423,44.75 24.40647,24.6125 44.6199,44.75 44.91874,44.75 0.70932,0 9.31313,-8.56444 9.31313,-9.27052 0,-0.29775 -20.1375,-20.40844 -44.75,-44.69042 C 133.1375,206.25708 113,186.01763 113,185.5625 113,184.6468 124.92967,172.5 125.829,172.5 c 0.3105,0 13.43175,13.275 29.15832,29.5 15.72658,16.225 28.76655,29.5 28.97771,29.5 0.21116,0 10.97151,-10.4625 23.9119,-23.25 12.94038,-12.7875 23.67604,-23.25 23.85702,-23.25 0.18098,0 15.63738,15.2477 34.34756,33.88378 29.46033,29.34366 33.99102,34.05008 33.81345,35.125 -0.1811,1.09624 -3.18006,-1.70805 -25.67544,-24.00878 -14.00871,-13.8875 -29.34934,-29.07042 -34.09028,-33.73982 l -8.6199,-8.48982 -19.62967,19.4916 c -27.32033,27.12815 -27.63877,27.42925 -28.47082,26.91973 -0.38774,-0.23743 -13.39472,-13.53794 -28.90441,-29.55669 -15.50969,-16.01875 -28.44103,-29.125 -28.73632,-29.125 -0.53464,0 -10.26812,9.51963 -10.26812,10.04252 0,0.15105 20.25,20.25318 45,44.67141 24.75,24.41822 45,44.65663 45,44.97424 0,0.75178 -11.58712,12.31183 -12.34066,12.31183 -0.3166,0 -20.56322,-20.14567 -44.99249,-44.76817 z M 10.878066,266.5915 C 1.9560864,257.64457 0,255.43421 0,254.29941 c 0,-1.22909 1.2402594,-0.17845 11.106563,9.4085 6.10861,5.93565 11.344303,10.79209 11.634875,10.79209 0.811055,0 9.757448,-9.16862 9.766796,-10.00939 C 32.512763,264.08327 25.175435,256.55 16.20306,247.75 1.7871747,233.61107 -0.08939176,231.5936 0.06982545,230.4054 c 0.16457927,-1.2282 1.70778245,0.1567 17.82885055,16 9.706773,9.53953 17.638022,17.69362 17.625,18.12022 C 35.493902,265.50099 23.410902,277.5 22.458478,277.5 c -0.386291,0 -5.597476,-4.90882 -11.580412,-10.9085 z M 271.375,203.45473 C 255.76875,188.03344 243,175.06286 243,174.63123 243,173.56445 253.98035,162.5 255.03902,162.5 c 0.46438,0 10.77058,10.02664 22.90266,22.28143 C 295.06313,202.07605 300,207.33953 300,208.29902 c 0,1.04981 -0.14007,1.1612 -0.92917,0.73888 -0.51104,-0.2735 -10.44437,-10.18142 -22.07406,-22.01759 C 265.15886,174.97222 255.46814,165.5 254.98005,165.5 c -0.83012,0 -8.95433,8.40591 -9.00354,9.31573 -0.0129,0.23885 12.15738,12.47258 27.0451,27.18607 24.16706,23.88423 27.05036,26.89864 26.89849,28.12171 -0.15507,1.24883 -2.67832,-1.10857 -28.5451,-26.66878 z M 29.965843,212.19556 C 26.684629,208.95476 24,205.99128 24,205.61005 24,205.22881 43.85625,184.90872 68.125,160.45429 92.39375,135.99987 112.32839,115.62678 112.4242,115.18075 112.63118,114.21721 104.652,106 103.50939,106 c -0.41947,0 -13.58694,12.83158 -29.261035,28.51461 -22.005855,22.0184 -28.741551,28.4828 -29.565846,28.375 -0.629646,-0.0823 -10.012137,-8.99175 -22.875,-21.72158 C 3.800362,123.34713 0,119.3513 0,118.23893 c 0,-1.25909 0.28595193,-1.08429 4.375,2.67439 2.40625,2.21184 12.361311,12.02368 22.122359,21.8041 C 36.258406,152.49784 44.47164,160.5 44.748989,160.5 45.026339,160.5 58.189295,147.5625 74,131.75 89.810705,115.9375 103.08865,103 103.50652,103 c 0.99905,0 11.99348,11.03751 11.99348,12.04046 0,0.42615 -20.06114,20.97254 -44.58031,45.65866 l -44.580305,44.88385 4.870577,4.83351 4.870577,4.83352 44.631976,-44.875 C 113.98798,136.91835 125.63599,125.5 126.49011,125.5 c 0.84163,0 7.22537,6.03642 24.05898,22.75 12.60235,12.5125 23.12165,22.75 23.37624,22.75 0.25457,0 20.43132,-20.1375 44.83722,-44.75 C 243.16845,101.6375 263.47816,81.5 263.89524,81.5 264.93338,81.5 276,92.49118 276,93.52225 c 0,0.45516 -20.06187,21.01679 -44.58193,45.69251 l -44.58195,44.86495 4.87067,4.83515 4.87066,4.83514 44.64767,-44.875 c 24.55622,-24.68125 44.95754,-44.86863 45.33627,-44.86085 0.37874,0.008 3.55736,2.79501 7.06361,6.19386 5.16305,5.0049 6.375,6.4446 6.375,7.57302 l 0,1.39328 -1.375,-1.1965 c -0.75625,-0.65808 -3.6512,-3.41958 -6.43323,-6.13668 -2.78202,-2.7171 -5.38126,-4.86164 -5.77609,-4.76565 -0.39483,0.096 -20.4867,20.08702 -44.64861,44.42452 -24.16191,24.3375 -44.25811,44.44486 -44.65821,44.68303 -0.54154,0.32236 -2.2458,-1.08134 -6.66816,-5.49218 -3.26739,-3.25887 -5.9407,-6.22854 -5.9407,-6.59927 0,-0.37073 19.85625,-20.67774 44.125,-45.1267 24.26875,-24.44895 44.20339,-44.82219 44.2992,-45.27386 0.20713,-0.976475 -7.76552,-9.19102 -8.92038,-9.19102 -0.42254,0 -20.75223,20.1375 -45.17708,44.75 -24.42486,24.6125 -44.66365,44.75 -44.97508,44.75 -0.31143,0 -10.95384,-10.37163 -23.64979,-23.04806 -13.49499,-13.47424 -23.38615,-22.97616 -23.81205,-22.875 -0.40067,0.0952 -20.60427,20.19806 -44.89688,44.67306 -24.292605,24.475 -44.481773,44.68853 -44.864815,44.91896 -0.50193,0.30195 -2.362641,-1.22672 -6.662282,-5.4734 z M 21.361708,116.10027 C 3.7690442,98.47629 0,94.462295 0,93.35027 0,92.60762 0.06237089,92 0.13860196,92 0.21483305,92 9.830108,101.5625 21.505879,113.25 33.181651,124.9375 42.958579,134.5 43.232386,134.5 43.912948,134.5 52.5,125.90636 52.5,125.22528 52.5,124.92521 40.6875,113.03165 26.25,98.79514 5.7104515,78.541525 0,72.642965 0,71.68044 0,70.76901 0.18133846,70.5539 0.699932,70.850155 2.0334908,71.611965 55.5,124.61221 55.5,125.17233 55.5,125.88182 43.94986,137.5 43.244524,137.5 c -0.28661,0 -10.133877,-9.62988 -21.882816,-21.39973 z M 126.91088,82.75 C 102.16997,58.1375 81.668245,38 81.351505,38 81.03477,38 70.61728,48.149263 58.20153,60.55392 40.436067,78.30351 35.427481,83.04413 34.688721,82.808755 34.172424,82.64426 26.136039,74.892305 16.830087,65.58219 2.580567,51.326295 -0.05895763,48.464948 0.105753,47.452355 0.27626226,46.404114 2.4801238,48.412983 17.299677,63.125 26.648768,72.40625 34.625656,80 35.026095,80 35.426534,80 45.877291,69.875 58.25,57.5 70.62271,45.125 81.12776,35 81.594565,35 c 0.4668,0 1.14274,0.395491 1.502085,0.87887 1.6342,2.198282 88.92559,88.62113 89.51176,88.62113 1.05123,0 10.01317,-9.26575 9.81596,-10.14874 C 182.32847,113.92184 162.16875,93.73871 137.625,69.499875 113.08125,45.261043 93,25.073136 93,24.637861 93,23.586546 103.96633,12.5 105.00625,12.5 c 0.44636,0 20.78533,20.1375 45.19772,44.75 24.41239,24.6125 44.67983,44.75 45.03876,44.75 0.35893,0 13.36504,-12.825 28.90247,-28.5 15.53742,-15.675 28.56027,-28.5 28.93966,-28.5 0.37939,0 11.0905,10.416565 23.80247,23.147915 C 296.1719,87.4619 300,91.52389 300,92.67276 c 0,1.04688 -0.1713,1.281065 -0.71466,0.97699 C 298.89229,93.42978 288.51086,83.05707 276.21552,70.59928 262.15725,56.35527 253.56152,48.004652 253.05517,48.099375 252.61233,48.182218 239.65494,60.9625 224.26097,76.5 c -15.39396,15.5375 -28.35353,28.31742 -28.79904,28.39982 -0.51437,0.0951 -17.07302,-16.206785 -45.36843,-44.66504 -29.39212,-29.561273 -44.84092,-44.758684 -45.3884,-44.649819 -0.45648,0.09077 -2.71927,2.220126 -5.02841,4.731899 l -4.19844,4.56686 45.01087,44.41382 C 165.2451,93.72514 185.5,114.06908 185.5,114.50629 c 0,0.93284 -12.04111,12.99371 -12.97241,12.99371 -0.34828,0 -20.8758,-20.1375 -45.61671,-44.75 z M 281.30915,54.449505 C 271.23912,44.521729 263,36.024603 263,35.567 263,34.747319 274.87818,22.5 275.67315,22.5 c 0.63083,0 23.12796,21.944112 23.81692,23.231451 0.33471,0.625411 0.51885,1.560435 0.4092,2.07783 C 299.74591,48.532869 296.98635,46.066796 287.94348,37.125 281.47746,30.73125 275.97201,25.5 275.70915,25.5 c -0.26285,0 -2.72369,2.267063 -5.46853,5.037918 L 265.25,35.575836 282.625,52.681255 C 296.98647,66.819905 300,70.02197 300,71.143335 300,71.8895 299.91412,72.5 299.80915,72.5 c -0.10496,0 -8.42996,-8.122725 -18.5,-18.050495 z M 179.96584,62.19556 C 176.68463,58.95476 174,55.95296 174,55.524895 c 0,-0.42807 12.33977,-13.116552 27.42172,-28.196632 23.28466,-23.2817664 27.60327,-27.38832895 28.625,-27.21948452 1.04349,0.17243822 -2.44737,3.86427322 -26.28754,27.80100752 l -27.49082,27.602164 4.86671,4.866705 4.86671,4.86671 32.6706,-32.667747 C 246.29473,4.9576813 251.52895,-0.06163758 252.54649,0.09425177 253.58351,0.25312477 249.15328,4.9109584 220.52173,33.764315 202.24617,52.18144 186.98705,67.43853 186.61257,67.66896 c -0.48539,0.29867 -2.39379,-1.27285 -6.64672,-5.4734 z M 40.367184,40.61749 C 37.140233,37.38211 34.5,34.3996 34.5,33.989691 34.5,33.579782 41.982491,25.764412 51.12776,16.622201 65.510595,2.244172 67.95633,0 69.242895,0 70.58909,0 69.11883,1.6140166 53.753675,17.003677 l -16.9766,17.003678 4.726587,4.746322 C 44.103285,41.364155 46.450268,43.5 46.719178,43.5 46.988089,43.5 53.40503,37.370311 60.979055,29.878469 92.4791,-1.2797981 91.21768,-0.09644189 92.73875,0.08418749 94.016365,0.23590643 92.135625,2.2155571 70.611595,23.375 57.673695,36.09375 46.89604,46.5 46.661253,46.5 c -0.234787,0 -3.067118,-2.647129 -6.294069,-5.88251 z M 162.25,45.008828 C 161.7,44.773546 151.23845,34.550308 139.0021,22.290521 119.06213,2.3123392 116.90707,0 118.22765,0 c 1.27462,0 4.39548,2.9169671 23.12839,21.617345 L 163.011,43.234691 184.67762,21.572364 C 203.02729,3.2263318 206.52839,-0.05941973 207.54712,0.10954332 208.59277,0.28297135 205.81,3.2625081 186.2575,22.904524 173.88662,35.332036 163.64912,45.485738 163.5075,45.468307 163.36587,45.450876 162.8,45.24411 162.25,45.008828 Z M 11.649392,12.389105 C 5.2422265,6.0031115 0,0.6031117 0,0.38910434 0,0.17509695 0.5100872,0 1.1335271,0 1.91262,0 3.984142,1.7308412 7.758527,5.535458 c 3.02031,3.044502 7.925372,7.808654 10.900136,10.587003 l 5.408663,5.051545 10.5956,-10.587003 C 43.719922,1.5373558 45.475158,0 46.750357,0 48.114454,0 47.215395,1.0274613 36.25,12 29.654297,18.6 24.042032,24 23.778299,24 23.514566,24 18.056559,18.775097 11.649392,12.389105 Z"
       style="fill:#000000;fill-opacity:1" />
  </g>
  <g
     transform="translate(300,300)"
     id="g83700"
     style="fill:#000000;fill-opacity:1">
    <path
       style="fill:#000000;fill-opacity:1"
       d="m 0,298.9225 c 0,-1.04582 0.02939304,-1.05088 1,-0.1725 0.55,0.49774 1,0.98261 1,1.07749 C 2,299.92237 1.55,300 1,300 0.30935987,300 0,299.66667 0,298.9225 Z M 58.25288,286.875 c 39.822025,-40.21833 55.06674,-55.375 55.69669,-55.375 0.9747,0 12.05225,11.0129 12.04262,11.97234 -0.004,0.42771 -12.43555,13.34673 -27.625,28.70894 -24.460705,24.73889 -27.769475,27.91055 -28.949605,27.75 -1.20445,-0.16387 1.302315,-2.84632 26.10199,-27.93128 15.088915,-15.2625 27.444755,-28.09247 27.457415,-28.51104 0.0301,-0.99656 -8.01104,-8.98896 -9.04381,-8.98896 -0.43777,0 -15.3642,14.7375 -33.169845,32.75 C 51.629535,296.72226 48.232689,300 46.823322,300 45.358784,300 46.100057,299.14877 58.25288,286.875 Z M 97.75,293 c 3.84263,-3.85 7.22535,-7 7.51716,-7 0.29179,0 3.55731,3.08504 7.25669,6.85565 5.99479,6.11021 6.59592,6.87617 5.52841,7.04431 -0.96806,0.15247 -2.26399,-0.87457 -6.75783,-5.35565 C 108.23639,291.49494 105.5319,289 105.28446,289 c -0.24743,0 -2.98274,2.475 -6.078445,5.5 -4.465575,4.36358 -5.91929,5.5 -7.03559,5.5 -1.27701,0 -0.76142,-0.64684 5.579575,-7 z m 109.76923,5.625 C 211.41228,294.14009 252.87862,253 253.50605,253 c 1.10669,0 12.12866,11.21137 11.91859,12.1234 -0.096,0.41699 -7.73455,8.43482 -16.97442,17.81739 C 234.4812,297.12552 231.41928,300 230.27865,300 l -1.37177,0 2.0137,-2.375 c 1.10753,-1.30625 8.66598,-9.01107 16.79655,-17.12182 C 255.84771,272.39242 262.5,265.41246 262.5,264.99214 262.5,263.97369 254.45111,256 253.42306,256 c -0.44333,0 -10.59789,9.9 -22.5657,22 -18.27408,18.47593 -21.98166,22 -23.14566,22 l -1.38602,0 1.19355,-1.375 z m 44.75501,0.25 c 0.51107,-0.61875 5.88782,-6.13125 11.94832,-12.25 C 272.6344,278.13232 275.5324,275.5 276.47039,275.5 278.17215,275.5 300,297.17078 300,298.86029 300,299.48713 299.83769,300 299.63931,300 c -0.19838,0 -5.32858,-4.95 -11.40044,-11 -6.07186,-6.05 -11.3658,-11.0066 -11.76431,-11.01466 -0.39851,-0.008 -5.5624,4.94194 -11.47531,11 C 255.86806,298.34068 254.0298,300 252.79675,300 c -1.4475,0 -1.44903,-0.003 -0.52251,-1.125 z M 148.16685,242.73183 C 122.23394,216.5938 103.43789,198.02324 103,198.10683 102.5875,198.18557 89.65494,210.9625 74.260975,226.5 58.86701,242.0375 45.92951,254.81367 45.510975,254.89149 45.06591,254.97424 35.461256,245.72757 22.375,232.61783 3.0021795,213.21024 0,210.00487 0,208.72842 0,207.40739 2.3257421,209.57948 22.37706,229.62708 34.684444,241.93219 45.010894,252 45.324727,252 45.63856,252 58.60777,239.175 74.1452,223.5 89.682625,207.825 102.73204,195 103.1439,195 c 0.41186,0 20.71777,20.1375 45.12423,44.75 24.40647,24.6125 44.6199,44.75 44.91874,44.75 0.70932,0 9.31313,-8.56444 9.31313,-9.27052 0,-0.29775 -20.1375,-20.40844 -44.75,-44.69042 C 133.1375,206.25708 113,186.01763 113,185.5625 113,184.6468 124.92967,172.5 125.829,172.5 c 0.3105,0 13.43175,13.275 29.15832,29.5 15.72658,16.225 28.76655,29.5 28.97771,29.5 0.21116,0 10.97151,-10.4625 23.9119,-23.25 12.94038,-12.7875 23.67604,-23.25 23.85702,-23.25 0.18098,0 15.63738,15.2477 34.34756,33.88378 29.46033,29.34366 33.99102,34.05008 33.81345,35.125 -0.1811,1.09624 -3.18006,-1.70805 -25.67544,-24.00878 -14.00871,-13.8875 -29.34934,-29.07042 -34.09028,-33.73982 l -8.6199,-8.48982 -19.62967,19.4916 c -27.32033,27.12815 -27.63877,27.42925 -28.47082,26.91973 -0.38774,-0.23743 -13.39472,-13.53794 -28.90441,-29.55669 -15.50969,-16.01875 -28.44103,-29.125 -28.73632,-29.125 -0.53464,0 -10.26812,9.51963 -10.26812,10.04252 0,0.15105 20.25,20.25318 45,44.67141 24.75,24.41822 45,44.65663 45,44.97424 0,0.75178 -11.58712,12.31183 -12.34066,12.31183 -0.3166,0 -20.56322,-20.14567 -44.99249,-44.76817 z M 10.878066,266.5915 C 1.9560864,257.64457 0,255.43421 0,254.29941 c 0,-1.22909 1.2402594,-0.17845 11.106563,9.4085 6.10861,5.93565 11.344303,10.79209 11.634875,10.79209 0.811055,0 9.757448,-9.16862 9.766796,-10.00939 C 32.512763,264.08327 25.175435,256.55 16.20306,247.75 1.7871747,233.61107 -0.08939176,231.5936 0.06982545,230.4054 c 0.16457927,-1.2282 1.70778245,0.1567 17.82885055,16 9.706773,9.53953 17.638022,17.69362 17.625,18.12022 C 35.493902,265.50099 23.410902,277.5 22.458478,277.5 c -0.386291,0 -5.597476,-4.90882 -11.580412,-10.9085 z M 271.375,203.45473 C 255.76875,188.03344 243,175.06286 243,174.63123 243,173.56445 253.98035,162.5 255.03902,162.5 c 0.46438,0 10.77058,10.02664 22.90266,22.28143 C 295.06313,202.07605 300,207.33953 300,208.29902 c 0,1.04981 -0.14007,1.1612 -0.92917,0.73888 -0.51104,-0.2735 -10.44437,-10.18142 -22.07406,-22.01759 C 265.15886,174.97222 255.46814,165.5 254.98005,165.5 c -0.83012,0 -8.95433,8.40591 -9.00354,9.31573 -0.0129,0.23885 12.15738,12.47258 27.0451,27.18607 24.16706,23.88423 27.05036,26.89864 26.89849,28.12171 -0.15507,1.24883 -2.67832,-1.10857 -28.5451,-26.66878 z M 29.965843,212.19556 C 26.684629,208.95476 24,205.99128 24,205.61005 24,205.22881 43.85625,184.90872 68.125,160.45429 92.39375,135.99987 112.32839,115.62678 112.4242,115.18075 112.63118,114.21721 104.652,106 103.50939,106 c -0.41947,0 -13.58694,12.83158 -29.261035,28.51461 -22.005855,22.0184 -28.741551,28.4828 -29.565846,28.375 -0.629646,-0.0823 -10.012137,-8.99175 -22.875,-21.72158 C 3.800362,123.34713 0,119.3513 0,118.23893 c 0,-1.25909 0.28595193,-1.08429 4.375,2.67439 2.40625,2.21184 12.361311,12.02368 22.122359,21.8041 C 36.258406,152.49784 44.47164,160.5 44.748989,160.5 45.026339,160.5 58.189295,147.5625 74,131.75 89.810705,115.9375 103.08865,103 103.50652,103 c 0.99905,0 11.99348,11.03751 11.99348,12.04046 0,0.42615 -20.06114,20.97254 -44.58031,45.65866 l -44.580305,44.88385 4.870577,4.83351 4.870577,4.83352 44.631976,-44.875 C 113.98798,136.91835 125.63599,125.5 126.49011,125.5 c 0.84163,0 7.22537,6.03642 24.05898,22.75 12.60235,12.5125 23.12165,22.75 23.37624,22.75 0.25457,0 20.43132,-20.1375 44.83722,-44.75 C 243.16845,101.6375 263.47816,81.5 263.89524,81.5 264.93338,81.5 276,92.49118 276,93.52225 c 0,0.45516 -20.06187,21.01679 -44.58193,45.69251 l -44.58195,44.86495 4.87067,4.83515 4.87066,4.83514 44.64767,-44.875 c 24.55622,-24.68125 44.95754,-44.86863 45.33627,-44.86085 0.37874,0.008 3.55736,2.79501 7.06361,6.19386 5.16305,5.0049 6.375,6.4446 6.375,7.57302 l 0,1.39328 -1.375,-1.1965 c -0.75625,-0.65808 -3.6512,-3.41958 -6.43323,-6.13668 -2.78202,-2.7171 -5.38126,-4.86164 -5.77609,-4.76565 -0.39483,0.096 -20.4867,20.08702 -44.64861,44.42452 -24.16191,24.3375 -44.25811,44.44486 -44.65821,44.68303 -0.54154,0.32236 -2.2458,-1.08134 -6.66816,-5.49218 -3.26739,-3.25887 -5.9407,-6.22854 -5.9407,-6.59927 0,-0.37073 19.85625,-20.67774 44.125,-45.1267 24.26875,-24.44895 44.20339,-44.82219 44.2992,-45.27386 0.20713,-0.976475 -7.76552,-9.19102 -8.92038,-9.19102 -0.42254,0 -20.75223,20.1375 -45.17708,44.75 -24.42486,24.6125 -44.66365,44.75 -44.97508,44.75 -0.31143,0 -10.95384,-10.37163 -23.64979,-23.04806 -13.49499,-13.47424 -23.38615,-22.97616 -23.81205,-22.875 -0.40067,0.0952 -20.60427,20.19806 -44.89688,44.67306 -24.292605,24.475 -44.481773,44.68853 -44.864815,44.91896 -0.50193,0.30195 -2.362641,-1.22672 -6.662282,-5.4734 z M 21.361708,116.10027 C 3.7690442,98.47629 0,94.462295 0,93.35027 0,92.60762 0.06237089,92 0.13860196,92 0.21483305,92 9.830108,101.5625 21.505879,113.25 33.181651,124.9375 42.958579,134.5 43.232386,134.5 43.912948,134.5 52.5,125.90636 52.5,125.22528 52.5,124.92521 40.6875,113.03165 26.25,98.79514 5.7104515,78.541525 0,72.642965 0,71.68044 0,70.76901 0.18133846,70.5539 0.699932,70.850155 2.0334908,71.611965 55.5,124.61221 55.5,125.17233 55.5,125.88182 43.94986,137.5 43.244524,137.5 c -0.28661,0 -10.133877,-9.62988 -21.882816,-21.39973 z M 126.91088,82.75 C 102.16997,58.1375 81.668245,38 81.351505,38 81.03477,38 70.61728,48.149263 58.20153,60.55392 40.436067,78.30351 35.427481,83.04413 34.688721,82.808755 34.172424,82.64426 26.136039,74.892305 16.830087,65.58219 2.580567,51.326295 -0.05895763,48.464948 0.105753,47.452355 0.27626226,46.404114 2.4801238,48.412983 17.299677,63.125 26.648768,72.40625 34.625656,80 35.026095,80 35.426534,80 45.877291,69.875 58.25,57.5 70.62271,45.125 81.12776,35 81.594565,35 c 0.4668,0 1.14274,0.395491 1.502085,0.87887 1.6342,2.198282 88.92559,88.62113 89.51176,88.62113 1.05123,0 10.01317,-9.26575 9.81596,-10.14874 C 182.32847,113.92184 162.16875,93.73871 137.625,69.499875 113.08125,45.261043 93,25.073136 93,24.637861 93,23.586546 103.96633,12.5 105.00625,12.5 c 0.44636,0 20.78533,20.1375 45.19772,44.75 24.41239,24.6125 44.67983,44.75 45.03876,44.75 0.35893,0 13.36504,-12.825 28.90247,-28.5 15.53742,-15.675 28.56027,-28.5 28.93966,-28.5 0.37939,0 11.0905,10.416565 23.80247,23.147915 C 296.1719,87.4619 300,91.52389 300,92.67276 c 0,1.04688 -0.1713,1.281065 -0.71466,0.97699 C 298.89229,93.42978 288.51086,83.05707 276.21552,70.59928 262.15725,56.35527 253.56152,48.004652 253.05517,48.099375 252.61233,48.182218 239.65494,60.9625 224.26097,76.5 c -15.39396,15.5375 -28.35353,28.31742 -28.79904,28.39982 -0.51437,0.0951 -17.07302,-16.206785 -45.36843,-44.66504 -29.39212,-29.561273 -44.84092,-44.758684 -45.3884,-44.649819 -0.45648,0.09077 -2.71927,2.220126 -5.02841,4.731899 l -4.19844,4.56686 45.01087,44.41382 C 165.2451,93.72514 185.5,114.06908 185.5,114.50629 c 0,0.93284 -12.04111,12.99371 -12.97241,12.99371 -0.34828,0 -20.8758,-20.1375 -45.61671,-44.75 z M 281.30915,54.449505 C 271.23912,44.521729 263,36.024603 263,35.567 263,34.747319 274.87818,22.5 275.67315,22.5 c 0.63083,0 23.12796,21.944112 23.81692,23.231451 0.33471,0.625411 0.51885,1.560435 0.4092,2.07783 C 299.74591,48.532869 296.98635,46.066796 287.94348,37.125 281.47746,30.73125 275.97201,25.5 275.70915,25.5 c -0.26285,0 -2.72369,2.267063 -5.46853,5.037918 L 265.25,35.575836 282.625,52.681255 C 296.98647,66.819905 300,70.02197 300,71.143335 300,71.8895 299.91412,72.5 299.80915,72.5 c -0.10496,0 -8.42996,-8.122725 -18.5,-18.050495 z M 179.96584,62.19556 C 176.68463,58.95476 174,55.95296 174,55.524895 c 0,-0.42807 12.33977,-13.116552 27.42172,-28.196632 23.28466,-23.2817664 27.60327,-27.38832895 28.625,-27.21948452 1.04349,0.17243822 -2.44737,3.86427322 -26.28754,27.80100752 l -27.49082,27.602164 4.86671,4.866705 4.86671,4.86671 32.6706,-32.667747 C 246.29473,4.9576813 251.52895,-0.06163758 252.54649,0.09425177 253.58351,0.25312477 249.15328,4.9109584 220.52173,33.764315 202.24617,52.18144 186.98705,67.43853 186.61257,67.66896 c -0.48539,0.29867 -2.39379,-1.27285 -6.64672,-5.4734 z M 40.367184,40.61749 C 37.140233,37.38211 34.5,34.3996 34.5,33.989691 34.5,33.579782 41.982491,25.764412 51.12776,16.622201 65.510595,2.244172 67.95633,0 69.242895,0 70.58909,0 69.11883,1.6140166 53.753675,17.003677 l -16.9766,17.003678 4.726587,4.746322 C 44.103285,41.364155 46.450268,43.5 46.719178,43.5 46.988089,43.5 53.40503,37.370311 60.979055,29.878469 92.4791,-1.2797981 91.21768,-0.09644189 92.73875,0.08418749 94.016365,0.23590643 92.135625,2.2155571 70.611595,23.375 57.673695,36.09375 46.89604,46.5 46.661253,46.5 c -0.234787,0 -3.067118,-2.647129 -6.294069,-5.88251 z M 162.25,45.008828 C 161.7,44.773546 151.23845,34.550308 139.0021,22.290521 119.06213,2.3123392 116.90707,0 118.22765,0 c 1.27462,0 4.39548,2.9169671 23.12839,21.617345 L 163.011,43.234691 184.67762,21.572364 C 203.02729,3.2263318 206.52839,-0.05941973 207.54712,0.10954332 208.59277,0.28297135 205.81,3.2625081 186.2575,22.904524 173.88662,35.332036 163.64912,45.485738 163.5075,45.468307 163.36587,45.450876 162.8,45.24411 162.25,45.008828 Z M 11.649392,12.389105 C 5.2422265,6.0031115 0,0.6031117 0,0.38910434 0,0.17509695 0.5100872,0 1.1335271,0 1.91262,0 3.984142,1.7308412 7.758527,5.535458 c 3.02031,3.044502 7.925372,7.808654 10.900136,10.587003 l 5.408663,5.051545 10.5956,-10.587003 C 43.719922,1.5373558 45.475158,0 46.750357,0 48.114454,0 47.215395,1.0274613 36.25,12 29.654297,18.6 24.042032,24 23.778299,24 23.514566,24 18.056559,18.775097 11.649392,12.389105 Z"
       id="path83702"
       inkscape:connector-curvature="0" />
  </g>
</svg>
